<?xml version="1.0" encoding="utf-8"?>
<!-- Generator: Adobe Illustrator 23.0.1, SVG Export Plug-In . SVG Version: 6.00 Build 0)  -->
<svg version="1.1" id="Layer_1" xmlns="http://www.w3.org/2000/svg" xmlns:xlink="http://www.w3.org/1999/xlink" x="0px" y="0px"
	 viewBox="0 0 185 185" style="enable-background:new 0 0 185 185;" xml:space="preserve">
<style type="text/css">
	.st0{fill:#FFFFFF;}
</style>
<g>
	<circle cx="92.5" cy="92.5" r="92.5"/>
	<g>
		<g>
			<g>
				<path class="st0" d="M52.28,58.13c0.58,0.24,1.02,0.45,1.32,0.63c0.3,0.18,0.63,0.45,0.99,0.81c0.36,0.36,0.59,0.82,0.7,1.38
					s0.11,1.23-0.01,2.01c-0.34,2.5-1.94,3.75-4.8,3.75c-1.32,0-2.31-0.27-2.98-0.82c-0.67-0.55-0.98-1.25-0.93-2.1
					s0.29-1.79,0.74-2.81h1.59c-0.5,0.82-0.78,1.55-0.84,2.19c-0.06,0.64,0.06,1.13,0.36,1.47c0.3,0.34,0.64,0.59,1.02,0.75
					c0.38,0.16,0.77,0.24,1.17,0.24c1.82,0,2.85-1.02,3.09-3.06c0.12-0.82,0-1.46-0.36-1.92c-0.36-0.46-1.06-0.92-2.1-1.38
					c-1.18-0.52-1.95-0.98-2.31-1.38c-0.66-0.74-0.89-1.82-0.69-3.24c0.32-2.32,1.88-3.48,4.68-3.48c1.2,0,2.07,0.29,2.62,0.87
					c0.55,0.58,0.79,1.27,0.73,2.06s-0.32,1.62-0.78,2.47h-1.47c0.6-1.04,0.85-1.88,0.77-2.52c-0.09-0.64-0.32-1.1-0.69-1.38
					c-0.37-0.28-0.82-0.42-1.33-0.42c-0.6,0-1.1,0.09-1.5,0.27c-0.4,0.18-0.7,0.44-0.9,0.78c-0.2,0.34-0.34,0.63-0.41,0.87
					c-0.07,0.24-0.13,0.53-0.19,0.87c-0.12,0.78,0.01,1.38,0.39,1.79C50.53,57.24,51.24,57.67,52.28,58.13z"/>
				<path class="st0" d="M61.7,66.56c-1.22,0-2.12-0.21-2.71-0.63c-0.59-0.42-0.88-0.96-0.88-1.6s0.04-1.35,0.12-2.12l0.95-6.87
					c0.08-0.64,0.18-1.15,0.3-1.54c0.12-0.39,0.33-0.81,0.65-1.27s0.77-0.8,1.4-1.04c0.62-0.23,1.4-0.34,2.34-0.34
					c1.84,0,2.99,0.33,3.46,1c0.47,0.67,0.59,1.79,0.38,3.37l-0.93,6.51c-0.22,1.68-0.65,2.86-1.3,3.53
					C64.81,66.23,63.56,66.56,61.7,66.56z M61.85,65.45c0.68,0,1.23-0.07,1.67-0.21c0.43-0.14,0.75-0.41,0.97-0.8
					c0.22-0.39,0.38-0.76,0.47-1.12c0.09-0.36,0.18-0.91,0.28-1.65l0.8-5.61c0.12-0.82,0.18-1.52,0.19-2.1
					c0.01-0.58-0.18-1.02-0.56-1.32c-0.38-0.3-1.02-0.45-1.93-0.45c-0.6,0-1.1,0.09-1.5,0.27c-0.4,0.18-0.69,0.44-0.87,0.77
					c-0.18,0.33-0.32,0.67-0.41,1.01c-0.09,0.34-0.17,0.72-0.23,1.14c0,0.14-0.01,0.24-0.04,0.3l-0.89,6.44
					c0,0.02-0.02,0.16-0.06,0.43c-0.04,0.27-0.06,0.44-0.07,0.5s-0.02,0.22-0.03,0.45c-0.01,0.23-0.01,0.38,0.01,0.46
					c0.02,0.08,0.04,0.21,0.07,0.39c0.03,0.18,0.08,0.31,0.15,0.38c0.07,0.07,0.16,0.17,0.27,0.29s0.24,0.21,0.41,0.25
					c0.16,0.05,0.35,0.1,0.57,0.14C61.35,65.43,61.59,65.45,61.85,65.45z"/>
				<path class="st0" d="M72.71,66.32c-1-6.6-1.73-11.56-2.18-14.88h1.73l1.92,13.65c1.51-2.4,2.56-4.82,3.14-7.26
					c0.56-2.42,0.6-4.55,0.12-6.39h1.47c0.34,0.78,0.47,1.77,0.38,2.97c-0.09,1.2-0.29,2.48-0.59,3.84
					c-0.3,1.36-0.77,2.71-1.41,4.06c-0.64,1.35-1.33,2.58-2.07,3.68c-0.74,1.1-1.6,1.99-2.58,2.67c-0.98,0.68-1.96,1.02-2.94,1.02
					c-0.5,0-1.04-0.08-1.62-0.24l0.15-1.11c0.34,0.1,0.73,0.15,1.17,0.15c0.18,0,0.43-0.04,0.75-0.1c0.32-0.07,0.75-0.29,1.29-0.64
					C71.96,67.37,72.39,66.9,72.71,66.32z"/>
			</g>
		</g>
		<g>
			<g>
				<path class="st0" d="M84.87,122.22c0.58,0.24,1.02,0.45,1.32,0.63c0.3,0.18,0.63,0.45,0.99,0.81c0.36,0.36,0.59,0.82,0.7,1.38
					s0.11,1.23-0.01,2.01c-0.34,2.5-1.94,3.75-4.8,3.75c-1.32,0-2.31-0.28-2.98-0.83c-0.67-0.55-0.98-1.25-0.93-2.1
					c0.05-0.85,0.29-1.79,0.74-2.8h1.59c-0.5,0.82-0.78,1.55-0.84,2.19c-0.06,0.64,0.06,1.13,0.36,1.47
					c0.3,0.34,0.64,0.59,1.02,0.75c0.38,0.16,0.77,0.24,1.17,0.24c1.82,0,2.85-1.02,3.09-3.06c0.12-0.82,0-1.46-0.36-1.92
					s-1.06-0.92-2.1-1.38c-1.18-0.52-1.95-0.98-2.31-1.38c-0.66-0.74-0.89-1.82-0.69-3.24c0.32-2.32,1.88-3.48,4.68-3.48
					c1.2,0,2.07,0.29,2.62,0.87c0.55,0.58,0.79,1.27,0.73,2.05c-0.06,0.79-0.32,1.62-0.78,2.48h-1.47c0.6-1.04,0.85-1.88,0.77-2.52
					c-0.09-0.64-0.32-1.1-0.69-1.38c-0.37-0.28-0.82-0.42-1.33-0.42c-0.6,0-1.1,0.09-1.5,0.27c-0.4,0.18-0.7,0.44-0.9,0.78
					c-0.2,0.34-0.34,0.63-0.41,0.87c-0.07,0.24-0.13,0.53-0.19,0.87c-0.12,0.78,0.01,1.38,0.39,1.79
					C83.12,121.32,83.83,121.76,84.87,122.22z"/>
				<path class="st0" d="M97.99,124.83h1.58l-0.19,1.3c-0.25,1.67-0.69,2.84-1.34,3.52c-0.65,0.67-1.89,1.01-3.73,1.01
					c-1.22,0-2.12-0.21-2.71-0.63s-0.89-0.95-0.9-1.6c-0.01-0.65,0.02-1.35,0.08-2.12l0.99-6.87c0.1-0.64,0.21-1.16,0.33-1.54
					c0.12-0.39,0.34-0.81,0.66-1.27c0.32-0.46,0.79-0.8,1.41-1.02c0.62-0.22,1.4-0.33,2.34-0.33c1.26,0,2.2,0.16,2.83,0.48
					c0.63,0.32,0.98,0.76,1.06,1.33c0.08,0.57,0.07,1.25-0.03,2.02c-0.12,0.9-0.55,1.69-1.3,2.36s-1.6,1.16-2.54,1.46
					c-0.94,0.3-1.74,0.51-2.4,0.64c-0.66,0.13-1.13,0.2-1.41,0.2l-0.3,2.07c-0.02,0.12-0.05,0.3-0.09,0.54
					c-0.04,0.24-0.06,0.38-0.06,0.42c-0.12,0.88-0.05,1.57,0.21,2.06c0.26,0.49,0.91,0.74,1.96,0.74c1.24,0,2.07-0.27,2.48-0.81
					c0.41-0.54,0.71-1.46,0.89-2.76L97.99,124.83z M93.28,119.87l-0.39,2.71c0.97,0,2.16-0.31,3.57-0.94s2.2-1.48,2.38-2.56
					c0.02-0.48,0.03-0.93,0.03-1.34s-0.21-0.76-0.63-1.04c-0.42-0.28-1.06-0.42-1.9-0.42c-1.07,0-1.79,0.25-2.18,0.76
					c-0.38,0.51-0.63,1.21-0.76,2.11c-0.02,0.08-0.04,0.2-0.06,0.36C93.31,119.67,93.29,119.79,93.28,119.87z"/>
				<path class="st0" d="M105.21,130.59c-0.34,0-0.63-0.02-0.87-0.06c-0.24-0.04-0.51-0.12-0.81-0.23c-0.3-0.11-0.54-0.27-0.7-0.5
					c-0.17-0.22-0.34-0.51-0.51-0.88c-0.17-0.37-0.24-0.83-0.22-1.37c0.02-0.54,0.06-1.18,0.12-1.92l0.87-6.33
					c0.24-1.62,0.73-2.7,1.48-3.24c0.75-0.54,1.7-0.81,2.86-0.81c0.7,0,1.33,0.15,1.9,0.45c0.57,0.3,0.91,0.75,1.03,1.37l0.22-1.54
					h1.58l-2.58,18.33l-1.58,0l0.72-5.08C108.07,129.98,106.9,130.59,105.21,130.59z M105.65,129.51c1.96,0,3.17-1.58,3.63-4.74
					l0.64-4.52c0.34-2.61-0.43-3.91-2.3-3.91c-1,0-1.71,0.29-2.12,0.87c-0.42,0.58-0.71,1.44-0.87,2.58l-0.83,5.79
					C103.41,128.2,104.03,129.51,105.65,129.51z"/>
				<path class="st0" d="M113.34,126.78l1.62-11.25h1.58l-1.57,11.13c-0.16,1.02-0.11,1.71,0.15,2.08c0.26,0.37,0.68,0.55,1.26,0.55
					c1.06,0,1.99-0.53,2.79-1.6c0.8-1.07,1.29-2.17,1.47-3.28l1.28-8.88h1.58l-2.15,14.85H120l0.18-2.91
					c-0.34,0.8-0.88,1.5-1.62,2.12c-0.74,0.61-1.69,0.92-2.85,0.92c-1.06,0-1.77-0.27-2.13-0.83
					C113.22,129.12,113.14,128.16,113.34,126.78z"/>
				<path class="st0" d="M131.98,124.83h1.58l-0.19,1.3c-0.25,1.67-0.69,2.84-1.34,3.52c-0.65,0.67-1.89,1.01-3.73,1.01
					c-1.22,0-2.12-0.21-2.71-0.63s-0.89-0.95-0.9-1.6c-0.01-0.65,0.02-1.35,0.08-2.12l0.99-6.87c0.1-0.64,0.21-1.16,0.33-1.54
					c0.12-0.39,0.34-0.81,0.66-1.27c0.32-0.46,0.79-0.8,1.41-1.02c0.62-0.22,1.4-0.33,2.34-0.33c1.26,0,2.2,0.16,2.83,0.48
					c0.63,0.32,0.98,0.76,1.06,1.33c0.08,0.57,0.07,1.25-0.03,2.02c-0.12,0.9-0.55,1.69-1.3,2.36s-1.6,1.16-2.54,1.46
					c-0.94,0.3-1.74,0.51-2.4,0.64c-0.66,0.13-1.13,0.2-1.41,0.2l-0.3,2.07c-0.02,0.12-0.05,0.3-0.09,0.54
					c-0.04,0.24-0.06,0.38-0.06,0.42c-0.12,0.88-0.05,1.57,0.21,2.06c0.26,0.49,0.91,0.74,1.96,0.74c1.24,0,2.07-0.27,2.48-0.81
					c0.41-0.54,0.71-1.46,0.89-2.76L131.98,124.83z M127.27,119.87l-0.39,2.71c0.97,0,2.16-0.31,3.57-0.94s2.2-1.48,2.38-2.56
					c0.02-0.48,0.03-0.93,0.03-1.34s-0.21-0.76-0.63-1.04c-0.42-0.28-1.06-0.42-1.9-0.42c-1.07,0-1.79,0.25-2.18,0.76
					c-0.38,0.51-0.63,1.21-0.76,2.11c-0.02,0.08-0.04,0.2-0.06,0.36C127.3,119.67,127.28,119.79,127.27,119.87z M133.77,110.55
					l-4.11,3.12h-1.35l3.15-3.12H133.77z"/>
				<path class="st0" d="M145.63,119.16l-1.59,11.22h-1.58l1.57-11.1c0.16-1,0.1-1.69-0.17-2.07c-0.27-0.38-0.68-0.57-1.24-0.57
					c-1.08,0-2.02,0.54-2.82,1.61c-0.8,1.07-1.29,2.17-1.47,3.29l-1.25,8.85h-1.58l2.08-14.85h1.38c-0.02,0.24-0.06,0.69-0.1,1.36
					c-0.05,0.67-0.09,1.19-0.1,1.54c0.36-0.8,0.92-1.5,1.68-2.11s1.72-0.92,2.89-0.92c1.06,0,1.76,0.27,2.09,0.83
					S145.83,117.76,145.63,119.16z"/>
			</g>
		</g>
		<g>
			<path class="st0" d="M19.8,108.39l1.1-7.92h2.14c1.37,0,2.31-0.23,2.8-0.7c0.49-0.46,0.86-1.4,1.1-2.82l4.47-31.89h11.62
				l-4.44,31.67c-0.64,4.49-2.07,7.57-4.29,9.23c-2.23,1.66-5.74,2.49-10.54,2.49C21.61,108.46,20.29,108.44,19.8,108.39z"/>
			<path class="st0" d="M41.27,102.01l4.25-29.91h11.33l-3.78,27.12c-0.05,0.63,0,1.05,0.16,1.25c0.15,0.2,0.46,0.29,0.93,0.29
				c0.82,0,1.31-0.43,1.47-1.3l3.76-27.36H70.7l-5.02,36.28h-9.82l0.15-6.52c-0.69,1.76-1.88,3.37-3.59,4.84
				c-1.71,1.47-3.74,2.2-6.08,2.2C42.32,108.9,40.64,106.61,41.27,102.01z"/>
			<path class="st0" d="M81.68,108.9c-1.22,0-2.25-0.01-3.09-0.04c-0.83-0.03-1.7-0.1-2.61-0.22c-0.91-0.12-1.65-0.3-2.24-0.55
				c-0.59-0.24-1.16-0.56-1.73-0.95c-0.56-0.39-0.99-0.88-1.29-1.46c-0.29-0.59-0.54-1.28-0.74-2.09c-0.2-0.8-0.28-1.75-0.26-2.82
				c0.02-1.07,0.15-2.29,0.38-3.66l2.53-17.37c0.77-5.48,3.85-8.22,9.22-8.22c2.57,0,4.33,1.08,5.3,3.23l1.81-12.54h11.48
				l-5.41,38.05c-0.25,1.81-0.77,3.31-1.58,4.5c-0.81,1.2-1.85,2.07-3.12,2.64c-1.27,0.56-2.58,0.95-3.93,1.17
				C85.08,108.79,83.5,108.9,81.68,108.9z M81.95,102.53c0.83,0,1.34-0.73,1.54-2.2l2.83-19.64c0.19-1.47-0.12-2.21-0.94-2.21
				c-0.82,0-1.33,0.73-1.52,2.2L81,100.33C80.8,101.79,81.12,102.53,81.95,102.53z"/>
			<path class="st0" d="M108.74,108.39H97.42l5.17-36.28h11.32L108.74,108.39z M103.87,62.87c0.24-1.51,0.98-2.8,2.2-3.85
				c1.22-1.05,2.59-1.58,4.1-1.58c1.56,0,2.83,0.53,3.81,1.58c0.98,1.05,1.37,2.33,1.17,3.85c-0.25,1.47-0.99,2.72-2.24,3.77
				c-1.25,1.05-2.65,1.58-4.21,1.58c-1.56,0-2.81-0.52-3.74-1.58C104.04,65.6,103.67,64.34,103.87,62.87z"/>
			<path class="st0" d="M115.59,78.7l0.73-4.91l4.81-1.69l2.4-6.6h8.82l-0.92,6.6h6.3l-0.97,6.6h-6.25l-2.7,19.26
				c-0.34,2.16,0.43,3.24,2.31,3.24l3.5-0.22l-0.96,6.74c-2.25,0.68-4.48,1.03-6.69,1.03c-1.17,0-2.18-0.04-3.01-0.11
				c-0.83-0.07-1.76-0.28-2.79-0.62c-1.03-0.34-1.85-0.81-2.46-1.39c-0.61-0.59-1.08-1.46-1.4-2.61c-0.32-1.15-0.38-2.51-0.18-4.07
				l3.05-21.25H115.59z"/>
			<path class="st0" d="M165.03,78.47l-4.18,29.92h-11.32l3.79-27.12c0.05-0.63-0.01-1.05-0.18-1.24c-0.17-0.19-0.51-0.29-1.03-0.29
				c-0.46,0-0.85,0.14-1.17,0.42c-0.32,0.28-0.51,0.57-0.56,0.85L147,108.39h-11.32l5.68-46.18h11.32l-2.02,16.39
				c0.67-1.75,1.83-3.36,3.5-4.82s3.65-2.19,5.93-2.19C164.12,71.59,165.77,73.89,165.03,78.47z"/>
		</g>
	</g>
</g>
</svg>
